<svg width="20" height="20" viewBox="0 0 20 20" fill="none" xmlns="http://www.w3.org/2000/svg">
<circle cx="10" cy="10" r="10" fill="white"/>
<path fill-rule="evenodd" clip-rule="evenodd" d="M10 18.0905C14.4682 18.0905 18.0905 14.4682 18.0905 10C18.0905 5.53177 14.4682 1.90955 10 1.90955C5.53177 1.90955 1.90955 5.53177 1.90955 10C1.90955 14.4682 5.53177 18.0905 10 18.0905ZM10 20C15.5228 20 20 15.5228 20 10C20 4.47715 15.5228 0 10 0C4.47715 0 0 4.47715 0 10C0 15.5228 4.47715 20 10 20Z" fill="#13B086"/>
<path d="M7.60935 4.72363V11.7443C7.60935 12.5135 7.81044 13.104 8.21263 13.5157C8.61482 13.9165 9.18006 14.117 9.90834 14.117C10.6475 14.117 11.2182 13.9165 11.6204 13.5157C12.0226 13.104 12.2236 12.5135 12.2236 11.7443V4.72363H14.5226V11.728C14.5226 12.6923 14.3107 13.5103 13.8867 14.182C13.4737 14.8429 12.9139 15.3413 12.2073 15.6771C11.5117 16.013 10.7345 16.1809 9.87573 16.1809C9.02788 16.1809 8.25611 16.013 7.56044 15.6771C6.87563 15.3413 6.33213 14.8429 5.92994 14.182C5.52775 13.5103 5.32666 12.6923 5.32666 11.728V4.72363H7.60935Z" fill="#158466"/>
</svg>
