<?xml version="1.0" encoding="UTF-8"?>
<svg id="Layer_2" data-name="Layer 2" xmlns="http://www.w3.org/2000/svg" viewBox="0 0 193.03 247.09">
  <defs>
    <style>
      .cls-1 {
        fill: #11562c;
        stroke-width: 0px;
      }
    </style>
  </defs>
  <g id="Layer_1-2" data-name="Layer 1">
    <g>
      <path class="cls-1" d="M84.35,227.04c.27,0,.54.03.82.08,3.02.6,4.82,4.56,6.92,9.13,1.07,2.33,3.29,7.19,4.43,7.19s3.36-4.86,4.43-7.19c2.09-4.57,3.9-8.52,6.91-9.13,3.04-.62,6.3,2.36,10.05,5.79,1.74,1.59,5.83,5.27,6.84,4.9.99-.41,1.21-5.83,1.3-8.14.21-5.12.39-9.54,3.05-11.23,2.61-1.65,6.68.03,11.41,1.97,2.4.99,7.41,3.05,8.27,2.28.76-.77-.65-5.71-1.34-8.08-1.37-4.78-2.67-9.31-.59-11.73,2.02-2.35,6.44-1.83,11.55-1.24,2.59.3,7.97.92,8.62-.05.55-.93-2.07-5.38-3.32-7.51-2.54-4.33-4.95-8.41-3.49-11.27,1.41-2.77,5.86-3.25,11.02-3.8,2.58-.28,7.96-.86,8.38-1.94.36-1.01-3.15-4.85-4.83-6.69-3.4-3.72-6.62-7.24-5.76-10.33.83-3,5.12-4.33,10.09-5.86,2.47-.76,7.62-2.35,7.83-3.49.18-1.05-4-4.2-6-5.72-4.04-3.04-7.86-5.92-7.58-9.12.27-3.11,4.27-5.16,8.89-7.54,2.3-1.18,7.07-3.63,7.07-4.78s-4.78-3.61-7.08-4.79c-4.62-2.37-8.62-4.42-8.89-7.54-.28-3.19,3.54-6.07,7.58-9.12,2.01-1.52,6.19-4.67,6.01-5.72-.2-1.14-5.35-2.73-7.83-3.49-4.97-1.53-9.26-2.85-10.09-5.85-.86-3.09,2.36-6.61,5.76-10.33,1.69-1.85,5.2-5.69,4.83-6.69-.42-1.08-5.79-1.66-8.37-1.94-5.16-.55-9.61-1.03-11.02-3.8-1.46-2.85.95-6.94,3.49-11.26,1.26-2.14,3.88-6.59,3.32-7.52-.65-.97-6.03-.35-8.62-.05-5.11.59-9.54,1.11-11.56-1.24-2.08-2.42-.78-6.94.59-11.73.68-2.37,2.1-7.31,1.34-8.08-.86-.75-5.86,1.3-8.27,2.29-4.73,1.94-8.81,3.62-11.41,1.97-2.66-1.69-2.84-6.11-3.05-11.23-.1-2.31-.32-7.74-1.3-8.14-1-.41-5.1,3.31-6.84,4.9-3.76,3.43-7,6.4-10.05,5.79-3.02-.6-4.82-4.56-6.92-9.13-1.07-2.33-3.29-7.19-4.42-7.19s-3.36,4.86-4.43,7.19c-2.09,4.57-3.9,8.53-6.91,9.13-3.06.6-6.29-2.36-10.06-5.79-1.74-1.59-5.84-5.27-6.84-4.9-.98.41-1.21,5.83-1.3,8.14-.21,5.12-.39,9.54-3.05,11.23-2.6,1.65-6.69-.03-11.41-1.98-2.4-.99-7.4-3.05-8.27-2.28-.76.77.66,5.71,1.34,8.08,1.37,4.79,2.67,9.31.59,11.73-2.02,2.35-6.44,1.84-11.55,1.24-2.59-.3-7.97-.92-8.62.05-.55.93,2.06,5.38,3.32,7.51,2.54,4.33,4.95,8.41,3.49,11.27-1.41,2.76-5.86,3.24-11.02,3.8-2.58.28-7.96.86-8.38,1.94-.36,1.01,3.15,4.85,4.83,6.69,3.4,3.72,6.62,7.24,5.76,10.33-.83,3-5.12,4.33-10.09,5.86-2.47.76-7.62,2.35-7.83,3.49-.19,1.05,4,4.2,6.01,5.72,4.04,3.04,7.86,5.92,7.58,9.12-.27,3.11-4.27,5.16-8.89,7.54-2.3,1.18-7.07,3.63-7.07,4.79s4.78,3.61,7.07,4.79c4.63,2.37,8.62,4.42,8.89,7.54.28,3.19-3.54,6.07-7.58,9.12-2.01,1.52-6.19,4.67-6.01,5.72.2,1.14,5.35,2.72,7.83,3.49,4.97,1.53,9.26,2.85,10.09,5.85.86,3.09-2.36,6.61-5.76,10.33-1.69,1.85-5.2,5.69-4.83,6.69.42,1.08,5.79,1.66,8.37,1.94,5.16.55,9.61,1.03,11.02,3.8,1.46,2.85-.95,6.94-3.49,11.27-1.26,2.14-3.87,6.58-3.32,7.51.64.97,6.03.35,8.61.05,5.12-.59,9.54-1.1,11.56,1.24,2.08,2.42.78,6.94-.59,11.73-.68,2.37-2.1,7.31-1.34,8.08.87.76,5.86-1.29,8.27-2.29,4.72-1.95,8.81-3.62,11.41-1.97,2.67,1.69,2.85,6.11,3.05,11.23.1,2.31.32,7.74,1.3,8.14,1.01.41,5.1-3.31,6.84-4.9,3.43-3.13,6.42-5.87,9.24-5.87M96.51,247.09c-3.53,0-5.6-4.54-7.8-9.34-1.09-2.38-3.12-6.82-4.28-7.06-1.19-.24-4.84,3.1-6.8,4.89-3.89,3.56-7.56,6.91-10.79,5.6-3.17-1.3-3.35-5.96-3.58-11.36-.12-2.86-.31-7.65-1.36-8.31-.98-.62-5.53,1.26-7.98,2.27-4.92,2.02-9.56,3.93-12.17,1.64-2.51-2.21-1.24-6.65.24-11.79.75-2.6,2.14-7.44,1.33-8.38-.73-.85-5.66-.28-8.3.02-5.27.61-10.25,1.19-12.15-1.68-1.82-2.76.51-6.73,3.22-11.33,1.38-2.34,3.94-6.71,3.38-7.8-.51-1-5.45-1.53-8.11-1.81-5.25-.56-10.21-1.1-11.43-4.27-1.18-3.07,1.93-6.48,5.54-10.43,1.84-2.01,5.26-5.76,4.94-6.93-.3-1.08-5.06-2.54-7.62-3.33-5.03-1.55-9.77-3.01-10.37-6.33-.58-3.23,3.12-6.02,7.4-9.25,2.18-1.64,6.24-4.71,6.14-5.91-.1-1.12-4.53-3.39-6.91-4.61-4.66-2.39-9.07-4.65-9.07-8.02s4.4-5.63,9.06-8.02c2.38-1.22,6.82-3.5,6.91-4.61.11-1.2-3.96-4.26-6.14-5.91-4.28-3.22-7.98-6.01-7.4-9.24.59-3.33,5.34-4.79,10.37-6.34,2.56-.79,7.32-2.26,7.62-3.33.32-1.17-3.1-4.92-4.94-6.93-3.61-3.95-6.72-7.36-5.54-10.43,1.22-3.17,6.18-3.71,11.44-4.27,2.66-.29,7.6-.82,8.11-1.81.56-1.1-2-5.46-3.38-7.8-2.71-4.6-5.05-8.58-3.22-11.33,1.9-2.87,6.88-2.29,12.15-1.68,2.64.3,7.57.87,8.29.02.81-.94-.58-5.78-1.32-8.39-1.48-5.14-2.75-9.58-.24-11.79,2.61-2.3,7.26-.38,12.17,1.64,2.45,1.01,7.01,2.9,7.98,2.27,1.05-.66,1.24-5.45,1.36-8.31.22-5.4.41-10.06,3.58-11.36,3.23-1.31,6.89,2.04,10.79,5.6,1.96,1.79,5.61,5.11,6.8,4.89,1.16-.23,3.19-4.67,4.28-7.06,2.2-4.8,4.27-9.34,7.8-9.34s5.6,4.54,7.8,9.34c1.09,2.38,3.12,6.82,4.28,7.06,1.19.21,4.84-3.1,6.8-4.89,3.89-3.56,7.55-6.92,10.79-5.6,3.17,1.3,3.35,5.96,3.58,11.36.11,2.86.31,7.65,1.36,8.31.95.62,5.53-1.26,7.98-2.27,4.92-2.03,9.56-3.93,12.17-1.64,2.51,2.21,1.24,6.65-.24,11.8-.75,2.6-2.14,7.44-1.33,8.38.73.85,5.65.28,8.3-.02,5.27-.61,10.25-1.19,12.14,1.68,1.83,2.75-.51,6.73-3.22,11.34-1.38,2.34-3.94,6.7-3.38,7.79.51,1,5.45,1.53,8.11,1.81,5.25.56,10.21,1.1,11.43,4.27,1.18,3.07-1.93,6.48-5.54,10.43-1.84,2.01-5.26,5.76-4.94,6.93.3,1.08,5.06,2.54,7.62,3.33,5.02,1.55,9.77,3.01,10.37,6.33.58,3.23-3.12,6.02-7.4,9.25-2.18,1.64-6.24,4.71-6.14,5.91.1,1.12,4.53,3.39,6.91,4.62,4.66,2.39,9.07,4.65,9.07,8.02s-4.4,5.63-9.07,8.02c-2.38,1.22-6.82,3.5-6.91,4.61-.11,1.21,3.96,4.27,6.14,5.91,4.28,3.22,7.98,6.01,7.4,9.24-.59,3.33-5.34,4.79-10.37,6.34-2.56.79-7.32,2.26-7.62,3.33-.32,1.17,3.1,4.92,4.94,6.93,3.61,3.95,6.72,7.36,5.54,10.43-1.22,3.17-6.18,3.71-11.44,4.27-2.66.29-7.61.82-8.11,1.82-.56,1.1,2,5.46,3.38,7.8,2.71,4.61,5.05,8.58,3.22,11.33-1.9,2.86-6.87,2.29-12.14,1.68-2.65-.31-7.57-.87-8.3-.02-.81.94.58,5.78,1.32,8.38,1.48,5.15,2.75,9.58.24,11.8-2.62,2.29-7.26.38-12.17-1.64-2.45-1.01-6.99-2.89-7.98-2.27-1.05.66-1.24,5.45-1.36,8.31-.22,5.4-.41,10.06-3.58,11.36-3.22,1.32-6.89-2.04-10.79-5.6-1.96-1.79-5.59-5.13-6.8-4.9-1.15.23-3.19,4.67-4.28,7.06-2.2,4.8-4.27,9.34-7.8,9.34"/>
      <path class="cls-1" d="M75.32,86.55c1.86-3.99,4.71-7.2,8.54-9.63,3.83-2.43,8.05-3.64,12.66-3.64s8.79,1.21,12.57,3.64c3.78,2.43,6.65,5.64,8.63,9.63h-42.4ZM96.51,139.46c8.87,0,16.93-2.4,24.15-7.2,7.23-4.8,12.54-11.08,15.94-18.85h-24.16c-4.49,4.1-9.81,6.15-15.94,6.15-4.6,0-8.82-1.19-12.66-3.56-3.84-2.37-6.68-5.56-8.54-9.55h63.59c.88-3.24,1.31-6.58,1.31-10.03,0-11.87-4.27-21.98-12.82-30.34-8.54-8.36-18.84-12.54-30.89-12.54s-22.35,4.18-30.9,12.54c-8.54,8.36-12.82,18.47-12.82,30.34s4.27,22.01,12.82,30.42c8.55,8.42,18.84,12.62,30.9,12.62"/>
      <path class="cls-1" d="M109.46,136.06c-3.78-.84-6.64-2.88-8.58-5.55-6.14,4.23-14.02,5-21.84,5.08l11.86,5.98c-4.86.37-9.49,1.04-13.85,2.03v13.82c4.99-2.09,11.48-3.13,19.47-3.13s14.35.99,19.09,2.95c5.24,2.09,7.05,4.49,5.43,7.19-2.37,3.93-10.11,6.02-23.21,6.27-5.62,0-10.8-.46-15.54-1.38-4.74-.92-7.99-2.31-9.73-4.15h-24.15c-.13.61-.19,1.41-.19,2.4,0,7.12,4.71,13.24,14.13,18.34,9.42,5.1,20.81,7.65,34.16,7.65s24.74-2.55,34.16-7.65c9.42-5.1,14.13-11.21,14.13-18.34,0-9.33-11.78-19.83-35.35-31.51"/>
    </g>
  </g>
</svg>