<?xml version="1.0" encoding="UTF-8"?>
<svg id="Layer_2" data-name="Layer 2" xmlns="http://www.w3.org/2000/svg" viewBox="0 0 77.44 114.01">
  <defs>
    <style>
      .cls-1 {
        fill: #11562c;
        stroke-width: 0px;
      }
    </style>
  </defs>
  <g id="Layer_1-2" data-name="Layer 1">
    <path class="cls-1" d="M50.54,67.94c2.63-.95,5.15-2.21,7.55-3.83,5.8-3.91,10.06-9.03,12.78-15.35h-19.37c-3.6,3.34-7.86,5.01-12.78,5.01-3.69,0-7.07-.97-10.15-2.9-3.08-1.93-5.36-4.52-6.85-7.77h50.99c.7-2.64,1.05-5.36,1.05-8.17,0-9.66-3.43-17.9-10.28-24.71C56.64,3.41,48.39,0,38.72,0S20.8,3.41,13.95,10.21c-6.85,6.81-10.28,15.04-10.28,24.71s3.43,17.92,10.28,24.77c3.98,3.98,8.45,6.8,13.38,8.47l6.89,3.53c-3.9.3-7.61.85-11.11,1.65v11.26c4-1.7,9.2-2.55,15.61-2.55s11.51.8,15.31,2.4c4.2,1.7,5.65,3.65,4.35,5.85-1.9,3.2-8.1,4.9-18.61,5.1-4.5,0-8.66-.37-12.46-1.12-3.8-.75-6.4-1.88-7.81-3.38H.15c-.1.5-.15,1.15-.15,1.95,0,5.8,3.77,10.78,11.33,14.93,7.55,4.15,16.68,6.23,27.39,6.23s19.84-2.08,27.39-6.23c7.55-4.15,11.33-9.13,11.33-14.93,0-7.4-8.99-15.71-26.9-24.91ZM28.58,19.04c3.07-1.98,6.46-2.96,10.15-2.96s7.05.99,10.08,2.96c3.03,1.98,5.34,4.59,6.92,7.84H21.73c1.49-3.25,3.77-5.87,6.85-7.84Z"/>
  </g>
</svg>