<?xml version="1.0" encoding="UTF-8"?>
<svg id="Layer_2" data-name="Layer 2" xmlns="http://www.w3.org/2000/svg" viewBox="0 0 337.04 150.62">
  <defs>
    <style>
      .cls-1 {
        fill: #11582c;
      }

      .cls-1, .cls-2, .cls-3 {
        stroke-width: 0px;
      }

      .cls-2 {
        fill: #e0adad;
      }

      .cls-3 {
        fill: #11562c;
      }
    </style>
  </defs>
  <g id="Layer_1-2" data-name="Layer 1">
    <g>
      <g>
        <path class="cls-3" d="M87.76,48.57c-5.54-5.54-8.31-12.22-8.31-20.03s2.77-14.47,8.31-19.98C93.31,3.05,99.98.29,107.8.29s14.49,2.75,20.03,8.26c5.54,5.51,8.31,12.16,8.31,19.98,0,2.27-.28,4.48-.85,6.61h-41.24c1.21,2.63,3.05,4.73,5.54,6.29,2.49,1.56,5.22,2.34,8.21,2.34,3.98,0,7.42-1.35,10.34-4.05h15.67c-2.2,5.12-5.65,9.25-10.34,12.41-4.69,3.16-9.91,4.74-15.66,4.74-7.82,0-14.49-2.77-20.03-8.31ZM121.54,22.03c-1.28-2.63-3.14-4.74-5.59-6.34-2.45-1.6-5.17-2.4-8.15-2.4s-5.72.8-8.21,2.4c-2.49,1.6-4.33,3.71-5.54,6.34h27.49Z"/>
        <path class="cls-3" d="M139.48,39.4h13.11c0,1.78,2.36,3.07,7.09,3.89s9.43.85,14.12.11,7.03-2.08,7.03-4c0-1.56-.75-2.68-2.24-3.36-1.49-.67-3.46-1.03-5.91-1.06s-5.15-.02-8.1.05c-2.95.07-5.88-.07-8.79-.43-2.91-.35-5.59-1.03-8.05-2.02-2.45-.99-4.44-2.75-5.97-5.28-1.53-2.52-2.29-5.74-2.29-9.64,0-3.27,1.01-6.18,3.04-8.74,2.03-2.56,4.64-4.48,7.83-5.75s6.73-2.2,10.6-2.77,7.74-.53,11.62.11c3.87.64,7.41,1.62,10.6,2.93,3.2,1.31,5.79,3.23,7.78,5.75,1.99,2.52,2.98,5.35,2.98,8.47h-13.11c0-1.07-.96-1.99-2.88-2.77-1.92-.78-4.26-1.26-7.03-1.44-2.77-.18-5.54-.2-8.31-.05-2.77.14-5.13.59-7.09,1.33-1.96.74-2.93,1.72-2.93,2.93,0,1.56.76,2.68,2.29,3.36,1.53.68,3.5,1.03,5.91,1.06,2.41.04,5.1.02,8.04-.05,2.95-.07,5.9.07,8.84.43,2.95.36,5.63,1.03,8.05,2.02,2.41,1,4.39,2.75,5.91,5.28,1.53,2.52,2.29,5.74,2.29,9.64,0,3.27-1,6.18-2.98,8.74-1.99,2.56-4.58,4.48-7.78,5.75-3.2,1.28-6.73,2.2-10.6,2.77-3.87.57-7.74.53-11.62-.11-3.87-.64-7.42-1.63-10.66-2.98-3.23-1.35-5.84-3.27-7.83-5.75-1.99-2.49-2.98-5.29-2.98-8.42Z"/>
        <path class="cls-3" d="M198.92,39.4h13.11c0,1.78,2.36,3.07,7.09,3.89s9.43.85,14.12.11,7.03-2.08,7.03-4c0-1.56-.75-2.68-2.24-3.36-1.49-.67-3.46-1.03-5.91-1.06s-5.15-.02-8.1.05c-2.95.07-5.88-.07-8.79-.43-2.91-.35-5.59-1.03-8.05-2.02-2.45-.99-4.44-2.75-5.97-5.28-1.53-2.52-2.29-5.74-2.29-9.64,0-3.27,1.01-6.18,3.04-8.74,2.03-2.56,4.64-4.48,7.83-5.75s6.73-2.2,10.6-2.77,7.74-.53,11.62.11c3.87.64,7.41,1.62,10.6,2.93,3.2,1.31,5.79,3.23,7.78,5.75,1.99,2.52,2.98,5.35,2.98,8.47h-13.11c0-1.07-.96-1.99-2.88-2.77-1.92-.78-4.26-1.26-7.03-1.44-2.77-.18-5.54-.2-8.31-.05-2.77.14-5.13.59-7.09,1.33-1.96.74-2.93,1.72-2.93,2.93,0,1.56.76,2.68,2.29,3.36,1.53.68,3.5,1.03,5.91,1.06,2.41.04,5.1.02,8.04-.05,2.95-.07,5.9.07,8.84.43,2.95.36,5.63,1.03,8.05,2.02,2.41,1,4.39,2.75,5.91,5.28,1.53,2.52,2.29,5.74,2.29,9.64,0,3.27-1,6.18-2.98,8.74-1.99,2.56-4.58,4.48-7.78,5.75-3.2,1.28-6.73,2.2-10.6,2.77-3.87.57-7.74.53-11.62-.11-3.87-.64-7.42-1.63-10.66-2.98-3.23-1.35-5.84-3.27-7.83-5.75-1.99-2.49-2.98-5.29-2.98-8.42Z"/>
      </g>
      <g>
        <path class="cls-3" d="M27.49,127.92c-4.55,0-8.24.6-11.08,1.81v-7.99c2.49-.57,5.12-.96,7.89-1.17l-8.74-4.48c-4.69-1.7-8.45-4.26-11.29-7.67-2.84-3.41-4.26-7.18-4.26-11.3,0-5.75,2.68-10.69,8.05-14.81,5.36-4.12,11.84-6.18,19.45-6.18,6.75,0,12.72,1.67,17.9,5.01l1.07-5.22h13.11l-6.82,13c1.49,2.63,2.24,5.36,2.24,8.2,0,4.83-1.9,9.11-5.7,12.84s-8.61,6.2-14.44,7.41c13.43,6.75,20.14,12.83,20.14,18.22,0,4.12-2.68,7.65-8.05,10.6-5.36,2.95-11.85,4.42-19.45,4.42s-14.08-1.47-19.45-4.42c-5.37-2.95-8.05-6.48-8.05-10.6,0-.57.03-1.03.11-1.39h13.75c.99,1.06,2.84,1.86,5.54,2.4,2.7.53,5.65.8,8.84.8,7.46-.14,11.86-1.35,13.21-3.62.92-1.56-.11-2.95-3.09-4.16-2.7-1.14-6.32-1.71-10.87-1.71ZM17.32,102.72c2.81,1.53,6.2,2.29,10.18,2.29s7.35-.76,10.12-2.29c2.77-1.53,4.16-3.39,4.16-5.6s-1.4-4.07-4.21-5.59c-2.81-1.53-6.18-2.29-10.12-2.29s-7.32.76-10.12,2.29c-2.81,1.53-4.21,3.39-4.21,5.59s1.4,4.07,4.21,5.6Z"/>
        <path class="cls-3" d="M67.68,124.3c-5.54-5.54-8.31-12.22-8.31-20.03s2.77-14.47,8.31-19.98c5.54-5.51,12.22-8.26,20.03-8.26s14.49,2.75,20.03,8.26c5.54,5.51,8.31,12.16,8.31,19.98,0,2.27-.28,4.48-.85,6.61h-41.24c1.21,2.63,3.05,4.73,5.54,6.29,2.49,1.56,5.22,2.34,8.21,2.34,3.98,0,7.42-1.35,10.34-4.05h15.67c-2.2,5.12-5.65,9.25-10.34,12.41-4.69,3.16-9.91,4.74-15.66,4.74-7.82,0-14.49-2.77-20.03-8.31ZM101.46,97.77c-1.28-2.63-3.14-4.74-5.59-6.34-2.45-1.6-5.17-2.4-8.15-2.4s-5.72.8-8.21,2.4c-2.49,1.6-4.33,3.71-5.54,6.34h27.49Z"/>
        <path class="cls-3" d="M153.12,89.03h-34.42v-13.11h54.45v13.11l-34.42,29.84h34.42v13.11h-54.45v-13.11l34.42-29.84Z"/>
        <path class="cls-3" d="M242.17,75.92h13.11v8.84c4.76-5.9,10.55-8.84,17.37-8.84s12.34,2.77,17,8.31c4.65,5.54,6.98,12.22,6.98,20.03v28.34h-13.11v-28.34c0-4.19-1.37-7.78-4.1-10.76-2.74-2.98-6.06-4.48-9.96-4.48s-7.25,1.49-10.02,4.48c-2.77,2.98-4.16,6.57-4.16,10.76v28.34h-13.11v-56.69Z"/>
        <path class="cls-3" d="M322.91,132.51c-4.76-.43-8.76-2.4-11.99-5.91s-4.88-7.65-4.95-12.41v-25.25h-6.5v-13.11h6.5c1.28,0,2.38-.57,3.3-1.71.92-1.14,1.6-2.66,2.03-4.58.43-1.92.74-3.82.96-5.7.21-1.88.32-3.82.32-5.81h6.5v17.8h9.91v13.11h-9.91v25.25c.07,1.49.66,2.75,1.76,3.78,1.1,1.03,2.4,1.55,3.89,1.55h8.1v13.11h-9.91v-.11Z"/>
        <path class="cls-2" d="M221.85,75.92v28.35c0,4.19-1.37,7.78-4.1,10.76-2.74,2.98-6.06,4.48-9.96,4.48-.02,0-.04,0-.05,0-.02,0-.04,0-.05,0-3.91,0-7.23-1.49-9.96-4.48-2.73-2.98-4.1-6.57-4.1-10.76v-28.35h-13.11v28.35c0,7.82,2.34,14.49,7.03,20.03,1.87,2.21,3.9,3.96,6.07,5.29,7.55,4.62,20.7,4.61,28.24,0,2.17-1.33,4.2-3.08,6.07-5.29,4.69-5.54,7.03-12.22,7.03-20.03v-28.35h-13.11Z"/>
      </g>
      <g>
        <path class="cls-1" d="M18.28,24.2s-.06-.02-.07-.05l-1.91-6.95c-.02-.06.02-.1.08-.1h1.24s.06.03.07.05l1.37,5.42h.05l1.69-5.42s.04-.05.06-.05h1.03s.05.02.06.05l1.67,5.43h.05l1.37-5.43s.04-.05.07-.05h1.23c.06,0,.09.05.08.1l-1.96,6.95s-.04.05-.07.05h-1.3s-.05-.02-.06-.05l-1.65-5.07h-.04l-1.68,5.07s-.03.05-.06.05h-1.3Z"/>
        <path class="cls-1" d="M33.76,17.17s.03-.07.07-.07h1.12s.07.03.07.07v6.96s-.04.07-.07.07h-1.12s-.07-.04-.07-.07v-2.89h-3.39v2.89s-.03.07-.07.07h-1.13s-.07-.04-.07-.07v-6.96s.03-.07.07-.07h1.13s.07.03.07.07v2.83h3.39v-2.83Z"/>
        <path class="cls-1" d="M42.57,18.2s-.03.06-.07.06h-2.84v1.76h2.6s.09.04.08.09l-.17,1.01s-.04.06-.07.06h-2.44v1.84h3s.09.04.08.09l-.17,1.02s-.03.06-.07.06h-4.04s-.07-.04-.07-.07v-6.96s.04-.07.07-.07h4.2s.09.04.08.09l-.17,1.02Z"/>
        <path class="cls-1" d="M49.76,24.2s-.04,0-.05-.03l-1.65-2.65h-1v2.61s-.04.07-.07.07h-1.13s-.07-.04-.07-.07v-6.96s.04-.07.07-.07h2.2c1.74,0,2.72.73,2.72,2.2,0,1-.47,1.67-1.41,2.02l1.77,2.74c.04.07,0,.15-.08.15h-1.31ZM47.07,18.26v2.17h.96c.9,0,1.43-.38,1.43-1.08s-.46-1.08-1.4-1.08h-1Z"/>
        <path class="cls-1" d="M58.15,18.2s-.04.06-.07.06h-2.84v1.76h2.6c.05,0,.09.04.08.09l-.17,1.01s-.03.06-.07.06h-2.44v1.84h3s.09.04.08.09l-.17,1.02s-.04.06-.07.06h-4.04s-.07-.04-.07-.07v-6.96s.03-.07.07-.07h4.2s.09.04.08.09l-.17,1.02Z"/>
        <path class="cls-1" d="M20.1,32.94s.03-.07.07-.07h1.12s.07.03.07.07v6.96s-.04.07-.07.07h-1.12s-.07-.04-.07-.07v-2.89h-3.39v2.89s-.03.07-.07.07h-1.13s-.07-.04-.07-.07v-6.96s.03-.07.07-.07h1.13s.07.03.07.07v2.83h3.39v-2.83Z"/>
        <path class="cls-1" d="M28.92,33.97s-.03.06-.07.06h-2.84v1.76h2.6s.09.04.08.09l-.17,1.01s-.04.06-.07.06h-2.44v1.84h3s.09.04.08.09l-.17,1.02s-.03.06-.07.06h-4.04s-.07-.04-.07-.07v-6.96s.04-.07.07-.07h4.2s.09.04.08.09l-.17,1.02Z"/>
        <path class="cls-1" d="M36.93,39.97s-.05-.02-.06-.04l-.49-1.35h-3.09l-.5,1.35s-.04.04-.06.04h-1.14c-.06,0-.1-.06-.08-.12l2.62-6.94s.04-.04.06-.04h1.36s.05.02.06.04l2.6,6.94c.02.06-.01.12-.08.12h-1.21ZM33.69,37.49h2.31l-1.06-3.12h-.15l-1.09,3.12Z"/>
        <path class="cls-1" d="M42.11,38.74h3.1s.09.04.08.09l-.17,1.08s-.03.06-.07.06h-4.14s-.07-.04-.07-.07v-6.96s.04-.07.07-.07h1.13s.07.03.07.07v5.8Z"/>
        <path class="cls-1" d="M48.89,39.97s-.07-.04-.07-.07v-5.8h-2.35s-.07-.03-.07-.07v-1.09s.04-.07.07-.07h5.95s.07.03.07.07v1.09s-.03.07-.07.07h-2.34v5.8s-.04.07-.07.07h-1.12Z"/>
        <path class="cls-1" d="M59.77,32.94s.04-.07.07-.07h1.12s.07.03.07.07v6.96s-.03.07-.07.07h-1.12s-.07-.04-.07-.07v-2.89h-3.39v2.89s-.04.07-.07.07h-1.13s-.07-.04-.07-.07v-6.96s.04-.07.07-.07h1.13s.07.03.07.07v2.83h3.39v-2.83Z"/>
      </g>
      <g>
        <path class="cls-1" d="M279.85,20.83l.7.66s.02.04.02.06c-.19.75-.58,1.32-.83,1.62l.71.86c.06.07.01.16-.08.16h-1.08s-.04,0-.05-.02l-.29-.34c-.54.31-1.15.46-1.83.46-1.41,0-2.5-.68-2.5-1.93,0-.85.57-1.34,1.47-1.92-.47-.62-.7-1.18-.7-1.67,0-1.1.83-1.79,1.98-1.79,1.07,0,1.86.64,1.86,1.68,0,.74-.46,1.34-1.54,2,.02.04.05.07.08.1l1.29,1.56c.26-.31.5-.86.65-1.46.01-.08.1-.1.15-.05ZM278.23,22.99l-1.51-1.75c-.57.36-.93.62-.93,1.1,0,.56.51.9,1.37.9.39,0,.75-.08,1.06-.25ZM276.53,18.82c0,.26.17.62.51,1.07.6-.37,1.04-.69,1.04-1.17,0-.4-.33-.68-.75-.68-.47,0-.8.32-.8.78Z"/>
        <path class="cls-1" d="M292.83,24.04c.05.07,0,.16-.08.16h-1.31s-.04,0-.05-.02l-2.32-2.97h-.72v2.92s-.03.07-.07.07h-1.13s-.07-.04-.07-.07v-6.96s.03-.07.07-.07h1.13s.07.03.07.07v2.86h.74c1.02-.87,1.55-1.79,1.99-2.91,0-.02.03-.03.05-.03h1.29c.09,0,.11.08.08.16-.55,1.26-1.2,2.32-2.33,3.34l2.67,3.45Z"/>
        <path class="cls-1" d="M295.84,23.28c-.7-.68-1.05-1.55-1.05-2.63s.35-1.96,1.05-2.64c.7-.67,1.59-1.01,2.65-1.01s1.94.34,2.64,1.01c.7.68,1.04,1.56,1.04,2.64s-.35,1.96-1.04,2.64c-.7.68-1.58,1.02-2.65,1.02s-1.94-.34-2.64-1.02ZM300.21,22.4c.42-.45.62-1.04.62-1.77s-.22-1.27-.67-1.73c-.45-.46-1.01-.68-1.68-.68s-1.25.23-1.7.69c-.45.46-.67,1.04-.67,1.74s.23,1.29.67,1.74c.45.46,1.01.69,1.7.69.74,0,1.31-.23,1.73-.68Z"/>
        <path class="cls-1" d="M304.73,24.09s-.05-.04-.05-.07v-1.14s0-.04.02-.05h0s.03,0,.04,0c.6.16,1.24.24,1.93.24.87,0,1.3-.26,1.31-.79,0-.22-.1-.41-.29-.59-.2-.18-.63-.43-1.28-.75-.65-.31-1.09-.61-1.33-.9-.24-.29-.36-.65-.36-1.09,0-.61.22-1.09.64-1.44.43-.34,1.03-.51,1.81-.51.6,0,1.16.06,1.67.2.03,0,.05.04.05.07v1.14s0,.04-.03.05c-.01,0-.03.01-.05,0-.54-.15-1.13-.23-1.78-.23-.63,0-.99.27-.99.7,0,.19.09.36.26.51.17.15.55.37,1.14.66.72.36,1.21.69,1.47,1s.39.69.39,1.14c0,1.35-.94,2.06-2.73,2.06-.72,0-1.33-.07-1.85-.21Z"/>
        <path class="cls-1" d="M316.83,17.17s.04-.07.07-.07h1.12s.07.03.07.07v6.96s-.03.07-.07.07h-1.12s-.07-.04-.07-.07v-2.89h-3.39v2.89s-.04.07-.07.07h-1.13s-.07-.04-.07-.07v-6.96s.04-.07.07-.07h1.13s.07.03.07.07v2.83h3.39v-2.83Z"/>
        <path class="cls-1" d="M325.65,18.2s-.03.06-.07.06h-2.84v1.76h2.6s.09.04.08.09l-.17,1.01s-.04.06-.07.06h-2.44v1.84h3s.09.04.08.09l-.17,1.02s-.03.06-.07.06h-4.04s-.07-.04-.07-.07v-6.96s.04-.07.07-.07h4.2s.09.04.08.09l-.17,1.02Z"/>
        <path class="cls-1" d="M332.84,24.2s-.04,0-.05-.03l-1.65-2.65h-1v2.61s-.04.07-.07.07h-1.13s-.07-.04-.07-.07v-6.96s.04-.07.07-.07h2.2c1.74,0,2.72.73,2.72,2.2,0,1-.47,1.67-1.41,2.02l1.77,2.74c.04.07,0,.15-.08.15h-1.31ZM330.14,18.26v2.17h.96c.9,0,1.43-.38,1.43-1.08s-.46-1.08-1.4-1.08h-1Z"/>
        <path class="cls-1" d="M272.87,39.07c-.72-.67-1.08-1.55-1.08-2.66s.36-1.99,1.08-2.66c.72-.66,1.64-.99,2.75-.99.63,0,1.17.07,1.62.21.03,0,.05.04.05.06v1.14s0,.04-.03.05c-.01,0-.03,0-.05,0-.45-.16-.94-.23-1.46-.24-.75,0-1.37.22-1.87.64-.5.43-.75,1.02-.75,1.77s.25,1.36.76,1.78c.5.43,1.14.65,1.89.65.58,0,1.1-.08,1.57-.24.02,0,.03,0,.04,0,.02,0,.03.03.03.06v1.14s-.02.05-.04.06c-.46.15-1.02.22-1.7.22-1.16,0-2.09-.33-2.81-1Z"/>
        <path class="cls-1" d="M280.86,39.05c-.7-.68-1.05-1.55-1.05-2.63s.35-1.96,1.05-2.64c.7-.67,1.59-1.01,2.65-1.01s1.94.34,2.64,1.01c.7.68,1.04,1.56,1.04,2.64s-.35,1.96-1.04,2.64c-.7.68-1.58,1.02-2.65,1.02s-1.94-.34-2.64-1.02ZM285.23,38.17c.42-.45.62-1.04.62-1.77s-.22-1.27-.67-1.73c-.45-.46-1.01-.68-1.68-.68s-1.25.23-1.7.69c-.45.46-.67,1.04-.67,1.74s.23,1.29.67,1.74c.45.46,1.01.69,1.7.69.74,0,1.31-.23,1.73-.68Z"/>
        <path class="cls-1" d="M290.25,39.97s-.07-.04-.07-.07v-6.96s.03-.07.07-.07h1.28s.04,0,.05.03l3.24,5.19h.04v-5.15s.03-.07.07-.07h1.08s.07.03.07.07v6.96s-.04.07-.07.07h-1.26s-.04-.01-.05-.03l-3.24-5.18h-.04v5.14s-.03.07-.07.07h-1.09Z"/>
        <path class="cls-1" d="M301.44,39.97s-.05-.02-.06-.04l-2.63-6.95c-.02-.06.02-.12.08-.12h1.27s.05.02.06.04l1.91,5.57h.05l1.87-5.57s.03-.04.06-.04h1.25c.06,0,.1.05.08.12l-2.66,6.95s-.03.04-.06.04h-1.22Z"/>
        <path class="cls-1" d="M312.22,33.97s-.03.06-.07.06h-2.84v1.76h2.6s.09.04.08.09l-.17,1.01s-.04.06-.07.06h-2.44v1.84h3s.09.04.08.09l-.17,1.02s-.03.06-.07.06h-4.04s-.07-.04-.07-.07v-6.96s.04-.07.07-.07h4.2s.09.04.08.09l-.17,1.02Z"/>
        <path class="cls-1" d="M319.41,39.97s-.04-.01-.05-.03l-1.65-2.65h-1v2.61s-.04.07-.07.07h-1.13s-.07-.04-.07-.07v-6.96s.04-.07.07-.07h2.2c1.74,0,2.72.73,2.72,2.2,0,1-.47,1.67-1.41,2.02l1.77,2.74c.04.07,0,.15-.08.15h-1.31ZM316.71,34.03v2.17h.96c.9,0,1.43-.38,1.43-1.08s-.46-1.08-1.4-1.08h-1Z"/>
        <path class="cls-1" d="M323.17,36.44c0-2.33,1.63-3.67,3.98-3.67.69,0,1.27.07,1.73.21.03,0,.05.04.05.06v1.13s0,.04-.03.05h0s-.03.01-.04,0c-.52-.15-1.06-.23-1.6-.23-1.63,0-2.74.9-2.74,2.43s1.15,2.41,2.64,2.41c.48,0,.89-.06,1.22-.17v-1.65h-1.67s-.07-.03-.07-.07v-1s.03-.07.07-.07h2.75s.07.04.07.07v3.62s0,.05-.03.06c-.64.3-1.44.45-2.41.45-2.27,0-3.91-1.4-3.91-3.63Z"/>
        <path class="cls-1" d="M336.86,33.97s-.03.06-.07.06h-2.84v1.76h2.6s.09.04.08.09l-.17,1.01s-.04.06-.07.06h-2.44v1.84h3s.09.04.08.09l-.17,1.02s-.03.06-.07.06h-4.04s-.07-.04-.07-.07v-6.96s.04-.07.07-.07h4.2s.09.04.08.09l-.17,1.02Z"/>
      </g>
    </g>
  </g>
</svg>